<svg width="47" height="46" viewBox="0 0 47 46" fill="none" xmlns="http://www.w3.org/2000/svg">
<path d="M23.5 45.248C35.9264 45.248 46 35.3428 46 23.124C46 10.9053 35.9264 1 23.5 1C11.0736 1 1 10.9053 1 23.124C1 35.3428 11.0736 45.248 23.5 45.248Z" stroke="white" stroke-width="0.986907" stroke-miterlimit="10"/>
<path d="M32.848 16.2133C32.848 11.0076 28.6292 6.85938 23.3351 6.85938C18.041 6.85938 13.8223 11.0076 13.8223 16.2133C13.8223 20.8496 17.2965 24.7538 21.8462 25.4045V30.3661H19.1991C18.4546 30.3661 17.7929 31.0168 17.7929 31.7489C17.7929 32.4809 18.4546 33.1316 19.1991 33.1316H21.8462V36.8732C21.8462 37.6052 22.5079 38.2559 23.2524 38.2559C23.9969 38.2559 24.6587 37.6052 24.6587 36.8732V33.1316H27.6366C28.3811 33.1316 29.0428 32.4809 29.0428 31.7489C29.0428 31.0168 28.3811 30.3661 27.6366 30.3661H24.6587V25.4858C29.2083 24.9165 32.848 20.9309 32.848 16.2133Z" fill="white"/>
</svg>
