<svg width="47" height="47" viewBox="0 0 47 47" fill="none" xmlns="http://www.w3.org/2000/svg">
<path d="M23.5 46C35.9264 46 46 35.9264 46 23.5C46 11.0736 35.9264 1 23.5 1C11.0736 1 1 11.0736 1 23.5C1 35.9264 11.0736 46 23.5 46Z" stroke="white" stroke-width="0.986907" stroke-miterlimit="10"/>
<path d="M35.5716 19.0363C35.5689 16.5122 33.5756 14.4665 31.116 14.4638H16.2641C15.9907 14.4638 15.769 14.2363 15.769 13.9558C15.769 13.6752 15.9907 13.4477 16.2641 13.4477H29.1357C30.5018 13.4452 31.6086 12.3093 31.6111 10.9074C31.6094 9.5051 30.5022 8.36892 29.1357 8.36719H15.2739C12.8143 8.36992 10.821 10.4155 10.8184 12.9397V14.9719C10.821 17.496 12.8143 19.5416 15.2739 19.5443H29.1357C29.4091 19.5443 29.6308 19.7718 29.6308 20.0524C29.6308 20.333 29.4091 20.5604 29.1357 20.5604H15.2739C12.8143 20.5632 10.821 22.6088 10.8184 25.1329V27.1651C10.821 29.6893 12.8143 31.7349 15.2739 31.7376H20.2246C20.498 31.7376 20.7196 31.9651 20.7196 32.2457V36.8181H25.6703V30.7215C25.6693 29.0004 24.6117 27.4663 23.0306 26.8922C22.6071 26.7355 22.1601 26.6558 21.7098 26.6571H16.2641C15.9907 26.6571 15.769 26.4296 15.769 26.149C15.769 25.8685 15.9907 25.641 16.2641 25.641H31.116C33.5756 25.6382 35.5689 23.5926 35.5716 21.0685V19.0363Z" fill="white"/>
</svg>
