<svg width="45" height="45" viewBox="0 0 45 45" fill="none" xmlns="http://www.w3.org/2000/svg">
<path d="M0.819336 22.4943C0.819336 10.5201 10.5269 0.8125 22.5012 0.8125C34.4754 0.8125 44.183 10.5201 44.183 22.4943C44.183 34.4685 34.4754 44.1761 22.5012 44.1761C10.5269 44.1761 0.819336 34.4685 0.819336 22.4943Z" stroke="white" stroke-width="0.8375" stroke-miterlimit="10"/>
<path d="M36.7253 25.0986C37.1189 26.2741 35.8813 27.1544 34.452 26.8437C33.9031 26.7246 33.1108 26.0152 32.8467 26.9162C32.5826 27.8276 33.6287 27.9364 34.2604 28.1797C34.5401 28.2885 34.8767 28.2626 35.1925 28.2937C35.5032 28.3247 35.8657 28.304 35.9745 28.6769C36.0729 29.029 35.8191 29.2568 35.5654 29.4536C35.4566 29.5365 35.234 29.6245 35.2443 29.6763C35.5964 31.2868 34.0637 32.1101 33.7219 33.4047C33.5355 34.1245 33.3076 34.6993 32.5878 34.9064C31.8214 35.1239 31.0706 35.0152 30.4336 34.4766C29.8744 34.0002 30.1851 33.5549 30.444 33.0474C30.7857 32.3846 31.7748 31.5353 30.8945 30.9709C29.921 30.3495 29.864 31.7269 29.4497 32.2499C28.7662 33.1199 28.005 33.7102 26.8243 33.5031C26.3841 33.4254 25.8508 33.3011 25.7368 33.9329C25.6333 34.5181 26.1407 34.6579 26.5809 34.777C26.7984 34.8339 27.0677 34.9634 27.2334 34.8909C28.7921 34.1763 29.574 35.5486 30.6511 36.1182C30.8531 36.2217 31.0757 36.3305 31.055 36.5894C31.0343 36.9208 30.734 37.0814 30.4906 37.0658C29.6672 37.0037 29.3306 37.7597 28.7921 38.0083C27.4664 38.6297 25.9647 39.0025 24.5044 39.1631C23.7225 39.2459 23.4687 38.3086 23.4635 37.537C23.4584 35.6521 23.4635 33.7672 23.4635 31.8823H23.4584C23.4584 30.044 23.4428 28.2005 23.4687 26.3621C23.4739 25.922 23.2875 25.1918 24.0383 25.2436C24.6701 25.285 25.0378 25.808 24.9238 26.5123C24.8358 27.0509 24.8099 27.5894 25.0429 28.0969C25.1983 28.4335 25.4054 28.7545 25.8456 28.6665C26.2961 28.5785 26.379 28.2212 26.3065 27.8328C26.089 26.678 26.5291 25.8236 27.4819 25.1918C27.7875 24.9899 28.1189 24.7465 27.9014 24.327C27.658 23.861 27.2386 23.9801 26.8398 24.1251C24.8513 24.8449 23.4687 23.9024 23.4584 21.8311C23.4532 21.2045 23.505 20.5727 23.448 19.9461C23.3444 18.7758 23.5775 17.8593 24.7788 17.3103C25.4417 17.0048 25.7834 16.3057 26.0165 15.6067C26.1407 15.2286 26.0993 14.8713 25.6902 14.7005C25.3381 14.5555 25.0947 14.7781 24.9135 15.0629C24.8203 15.2131 24.7581 15.3892 24.6597 15.5342C24.463 15.8293 24.261 16.2436 23.8674 16.1659C23.3237 16.0572 23.4791 15.529 23.4739 15.1561C23.4584 12.5514 23.4376 9.95189 23.4791 7.34717C23.505 5.77813 24.6338 5.2344 25.9388 6.09401C26.0527 6.1665 26.1666 6.36328 26.2443 6.34257C27.9584 5.89723 28.9681 7.38342 30.3559 7.80287C31.1948 8.05661 31.547 8.50713 31.5625 9.32531C31.578 10.2781 31.3502 11.1118 30.4699 11.6297C30.2058 11.785 29.952 11.6556 29.7294 11.4795C29.486 11.2827 29.2685 11.0393 29.0044 10.884C28.4658 10.5733 27.8341 9.79136 27.2852 10.594C26.8398 11.2465 27.6943 11.5675 28.1292 11.8731C29.2063 12.6343 29.5895 13.6389 29.372 14.9128C29.2996 15.3322 29.0613 15.8759 29.7035 16.0261C30.2627 16.1556 30.6459 15.6429 30.5993 15.2494C30.387 13.3903 31.8577 12.4116 32.6396 11.0704C32.7691 10.8477 32.8364 10.5112 33.173 10.5578C33.551 10.6095 33.696 10.9565 33.6649 11.262C33.5976 11.987 33.8462 12.4427 34.5349 12.7223C34.9284 12.8828 35.2029 13.323 35.1407 13.701C34.9854 14.6228 35.6327 15.2079 35.8657 15.9329C36.2437 17.1136 36.3887 18.3874 36.7616 19.6147C37.0205 20.464 35.9848 20.9197 35.1874 21.1475C34.421 21.365 33.8876 21.0388 33.6028 20.2931C33.5096 20.0445 33.3956 19.796 33.2558 19.5629C33.0176 19.1694 32.7328 18.7448 32.1994 18.9933C31.6971 19.2263 31.8784 19.682 32.0544 20.0445C32.4791 20.9248 32.4118 21.7689 31.9975 22.6337C31.8266 22.9962 31.692 23.4571 32.1891 23.6797C32.5826 23.8558 32.8882 23.5606 33.0798 23.2499C33.929 21.857 35.5239 22.9185 36.6166 22.178C36.8962 21.9916 36.9998 22.7476 36.8289 22.9962C36.3266 23.7108 36.4664 24.3167 36.7253 25.0986ZM21.5113 23.0687C21.5527 23.8765 19.3623 24.7051 18.5544 24.3011C18.1039 24.0785 17.5913 23.7315 17.2288 24.239C16.8042 24.8345 17.4618 25.0624 17.8243 25.3575C18.5803 25.9686 18.9325 26.7453 18.7668 27.7292C18.6943 28.159 18.7098 28.594 19.2483 28.6613C19.761 28.7286 19.9008 28.2885 20.0406 27.9001C20.196 27.4651 20.1649 27.025 20.0976 26.5693C19.9837 25.8132 20.3669 25.254 21.0711 25.2384C21.7909 25.2229 21.589 25.9582 21.5993 26.3984C21.6252 28.2367 21.6097 30.0802 21.6097 31.9185H21.6045C21.6045 33.7568 21.5993 35.6003 21.6045 37.4387C21.6045 38.1636 21.3974 38.785 20.7086 39.1216C19.994 39.4686 19.4089 39.1993 18.9117 38.6452C18.8237 38.5468 18.6735 38.3604 18.6321 38.3811C16.8456 39.2511 16.0119 37.159 14.536 37.0606C14.2357 37.0399 13.8628 36.9053 13.8318 36.5376C13.7955 36.1182 14.2564 36.1648 14.4842 35.9887C15.551 35.1705 16.6126 34.4766 18.0936 34.8236C18.5286 34.9271 19.326 34.7511 19.2949 34.0468C19.2587 33.2442 18.5596 33.4669 18.0366 33.529C17.0372 33.6481 16.2915 33.2235 15.7426 32.426C15.4888 32.0583 15.2869 31.6544 15.059 31.2712C14.8623 30.9398 14.6033 30.655 14.1943 30.8311C13.6868 31.0434 13.8059 31.4835 13.9664 31.8667C14.101 32.1982 14.2823 32.5089 14.4532 32.8247C14.7069 33.2804 15.1937 33.6999 14.7225 34.2695C14.1839 34.922 13.4538 35.0721 12.6511 34.9582C12.0142 34.8702 11.4601 34.5232 11.4497 33.8811C11.4342 33.0112 11.1235 32.4933 10.3571 32.0946C9.90657 31.8616 9.73568 31.3075 9.83407 30.7896C9.948 30.2097 9.83407 29.7954 9.38873 29.3552C8.72072 28.7028 9.04696 28.3299 9.8755 28.2937C10.4658 28.2678 11.0406 28.1797 11.5585 27.8898C11.9468 27.6671 12.444 27.4444 12.2368 26.8903C12.0193 26.3155 11.5222 26.4761 11.0924 26.6573C10.5849 26.8696 10.0619 26.9835 9.51819 26.8593C8.50323 26.6314 7.96468 25.7873 8.38931 24.8552C8.67412 24.239 8.65858 23.7937 8.28056 23.2603C8.07861 22.9755 7.9854 22.5509 8.27021 22.2557C8.54984 21.9657 8.845 22.3178 9.14017 22.3644C9.58033 22.4369 10.036 22.6182 10.4555 22.5509C11.1804 22.4369 11.6569 22.6182 12.009 23.2655C12.1799 23.5814 12.5061 23.8713 12.8997 23.6694C13.3813 23.4208 13.2207 22.9703 13.0395 22.613C12.5838 21.7016 12.5993 20.8109 13.0447 19.8995C13.2052 19.5681 13.3088 19.1797 12.8634 18.9726C12.4647 18.7862 12.1695 19.0347 11.952 19.3454C11.7967 19.5629 11.6827 19.8115 11.5636 20.0497C10.9578 21.2666 10.2173 21.5204 9.1091 20.8782C8.16664 20.3293 8.00093 19.5215 8.6534 18.491C8.845 18.1907 9.18678 17.9318 9.00553 17.5382C8.57573 16.5906 8.94339 15.8967 9.6373 15.2752C9.98942 14.9594 9.92211 14.5555 9.85997 14.1464C9.78747 13.67 9.88068 13.1832 10.2742 12.9294C10.9837 12.4738 11.574 12.0284 11.4445 11.0549C11.4238 10.9047 11.6569 10.6199 11.8277 10.5629C12.1643 10.449 12.2472 10.7856 12.3767 11.0186C12.5527 11.3293 12.6718 11.7125 12.9359 11.9248C13.8059 12.6395 14.4014 13.4318 14.2564 14.6435C14.2253 14.9231 14.4273 15.239 14.5619 15.5238C14.7276 15.8708 14.9917 16.1504 15.406 16.0313C15.8565 15.8967 15.8565 15.5031 15.7219 15.1458C15.1005 13.4939 16.0274 12.5204 17.2081 11.6349C17.5809 11.3552 18.2127 11.0911 17.757 10.5008C17.3582 9.99332 16.8611 10.3765 16.4365 10.6251C16.2449 10.739 16.0688 10.8788 15.8824 11.0083C15.4319 11.319 15.0901 11.9922 14.391 11.5675C13.4796 11.0135 13.4952 10.0865 13.5262 9.17513C13.5521 8.46052 13.8732 7.93233 14.6137 7.85983C15.2972 7.79769 15.6753 7.36271 16.1776 6.98469C17.4359 6.03704 19.0982 6.25454 20.5481 5.79884C21.1229 5.6176 21.5734 6.44614 21.5838 7.13486C21.6097 9.91564 21.6045 12.7016 21.6045 15.4824C21.6045 15.7465 21.6045 16.0727 21.2886 16.1608C20.9261 16.2643 20.7449 15.9381 20.5274 15.7206C20.1494 15.3322 20.0665 14.1981 19.2535 14.8351C18.5441 15.3944 19.2276 16.1297 19.616 16.7148C19.6885 16.8236 19.7817 16.9479 19.8956 17.0048C22.7178 18.403 21.3974 20.9611 21.5113 23.0687Z" fill="white"/>
</svg>
