<svg width="47" height="47" viewBox="0 0 47 47" fill="none" xmlns="http://www.w3.org/2000/svg">
<path d="M23.5 46C35.9264 46 46 35.9264 46 23.5C46 11.0736 35.9264 1 23.5 1C11.0736 1 1 11.0736 1 23.5C1 35.9264 11.0736 46 23.5 46Z" stroke="white" stroke-width="0.986907" stroke-miterlimit="10"/>
<path d="M37.3967 13.8185C34.2533 10.6751 29.2073 10.6751 26.0639 13.8185L23.9132 15.9692L21.7625 13.8185C18.6191 10.6751 13.5732 10.6751 10.4298 13.8185C7.28642 16.9619 7.28642 22.0078 10.4298 25.1512L23.9132 38.6347L37.3967 25.1512C40.54 22.0078 40.54 16.9619 37.3967 13.8185Z" fill="white"/>
</svg>
