<svg width="60" height="60" viewBox="0 0 60 60" fill="none" xmlns="http://www.w3.org/2000/svg">
<rect x="60" width="60" height="60" rx="30" transform="rotate(90 60 0)" fill="url(#paint0_linear_1718_19904)"/>
<rect x="60" width="60" height="60" rx="30" transform="rotate(90 60 0)" fill="url(#paint1_linear_1718_19904)"/>
<path d="M39.2327 42.9003C34.331 46.3184 28.1985 45.9228 24.006 43.6509C21.0441 42.0483 18.9373 38.3462 17.957 36.3075C17.6337 37.1494 17.519 37.9202 17.4772 38.3361C17.3104 40.1009 18.0091 44.2797 18.7288 45.0709C19.2398 45.6287 19.1876 46.4908 18.614 46.9878C18.3429 47.2211 18.0196 47.3327 17.6858 47.3327C17.2999 47.3327 16.9141 47.1805 16.6429 46.8763C14.9951 45.0709 14.5466 39.6445 14.6926 38.0926C15.0055 34.7354 17.0392 30.9014 21.7845 30.2219C24.0685 29.8973 25.8937 30.4551 27.4998 30.9521C29.5126 31.5708 30.8476 31.9766 32.631 30.6377C35.0714 28.812 34.2371 24.9679 33.1107 22.0671C30.9727 16.5596 34.3727 13.2023 34.5291 13.0603C35.0819 12.5329 35.9684 12.5329 36.5107 13.0705C37.053 13.5979 37.053 14.46 36.5107 14.9874C36.396 15.099 34.2684 17.3203 35.7389 21.1035C35.9058 21.5194 36.0414 21.9251 36.1769 22.3105C38.2211 21.0528 42.0695 19.8053 45.0001 25.5156C47.0234 29.4916 46.3872 37.9101 39.2327 42.9003Z" fill="white"/>
<defs>
<linearGradient id="paint0_linear_1718_19904" x1="60" y1="0" x2="90.5595" y2="62.5728" gradientUnits="userSpaceOnUse">
<stop stop-color="#F6CF2C"/>
<stop offset="0.999767" stop-color="#76A933"/>
</linearGradient>
<linearGradient id="paint1_linear_1718_19904" x1="60" y1="0" x2="65.3626" y2="9.85642" gradientUnits="userSpaceOnUse">
<stop stop-color="#F6CF2C"/>
<stop offset="0.999767" stop-color="#76A933"/>
</linearGradient>
</defs>
</svg>
