<svg width="57" height="57" viewBox="0 0 57 57" fill="none" xmlns="http://www.w3.org/2000/svg">
<path d="M28.5 56C43.6878 56 56 43.6878 56 28.5C56 13.3122 43.6878 1 28.5 1C13.3122 1 1 13.3122 1 28.5C1 43.6878 13.3122 56 28.5 56Z" stroke="#00B140" stroke-width="0.986907" stroke-miterlimit="10"/>
<path d="M43.2539 23.0478C43.2507 19.9628 40.8144 17.4626 37.8082 17.4592H19.6559C19.3217 17.4592 19.0508 17.1812 19.0508 16.8383C19.0508 16.4954 19.3217 16.2173 19.6559 16.2173H35.3879C37.0575 16.2143 38.4103 14.826 38.4133 13.1126C38.4112 11.3986 37.0581 10.0099 35.3879 10.0078H18.4457C15.4395 10.0111 13.0032 12.5113 13 15.5964V18.0802C13.0032 21.1653 15.4395 23.6654 18.4457 23.6688H35.3879C35.7221 23.6688 35.993 23.9468 35.993 24.2897C35.993 24.6326 35.7221 24.9107 35.3879 24.9107H18.4457C15.4395 24.914 13.0032 27.4142 13 30.4993V32.9831C13.0032 36.0681 15.4395 38.5683 18.4457 38.5716H24.4965C24.8306 38.5716 25.1016 38.8497 25.1016 39.1926V44.7812H31.1524V37.3297C31.1512 35.2261 29.8586 33.3512 27.9261 32.6496C27.4084 32.4579 26.8621 32.3606 26.3117 32.3621H19.6559C19.3217 32.3621 19.0508 32.0841 19.0508 31.7412C19.0508 31.3982 19.3217 31.1202 19.6559 31.1202H37.8082C40.8144 31.1169 43.2507 28.6167 43.2539 25.5316V23.0478Z" fill="#00B140"/>
</svg>
