<svg width="24" height="24" viewBox="0 0 24 24" fill="none" xmlns="http://www.w3.org/2000/svg">
<path fill-rule="evenodd" clip-rule="evenodd" d="M24 19H23V16.8C21.147 21.037 16.917 24 12 24C5.377 24 0 18.623 0 12H1C1 18.071 5.929 23 12 23C16.66 23 20.647 20.096 22.249 16H20V15H24V19ZM13.228 19H10.771C10.323 17.714 10.282 17.401 9.84 17.219C9.372 17.026 9.07 17.263 7.918 17.817L6.182 16.082C6.769 14.865 6.968 14.609 6.782 14.16C6.594 13.709 6.254 13.665 5 13.228V10.771C6.285 10.323 6.598 10.283 6.782 9.839C6.974 9.374 6.742 9.081 6.182 7.918L7.918 6.182C9.081 6.743 9.385 6.974 9.839 6.782C10.299 6.591 10.344 6.226 10.771 5H13.228C13.677 6.287 13.718 6.599 14.16 6.781C14.626 6.975 14.936 6.736 16.082 6.182L17.817 7.918C17.236 9.126 17.033 9.391 17.218 9.839C17.409 10.299 17.774 10.344 19 10.771V13.228C17.73 13.67 17.403 13.715 17.218 14.161C17.031 14.613 17.24 14.883 17.817 16.082L16.082 17.817C14.986 17.291 14.63 17.019 14.166 17.216C13.701 17.409 13.658 17.769 13.228 19ZM12.518 6H11.482C11.239 6.722 11.02 7.375 10.222 7.705C9.478 8.015 8.839 7.737 8.124 7.391L7.391 8.124C7.754 8.864 8.035 9.427 7.706 10.222C7.363 11.049 6.737 11.213 6 11.481V12.527C6.723 12.771 7.375 12.98 7.706 13.777C8.038 14.579 7.739 15.155 7.391 15.877L8.124 16.608C8.835 16.26 9.479 15.986 10.222 16.294C10.979 16.608 11.233 17.203 11.481 18H12.51C12.754 17.277 12.981 16.625 13.782 16.292C14.555 15.972 15.182 16.282 15.876 16.608L16.607 15.876C16.271 15.152 15.951 14.608 16.294 13.778C16.638 12.95 17.257 12.793 18 12.518V11.482C17.276 11.239 16.625 11.019 16.294 10.222C15.964 9.424 16.25 8.855 16.609 8.124L15.877 7.391C15.162 7.735 14.532 8.018 13.778 7.706C12.989 7.379 12.784 6.784 12.518 6ZM11.979 14.5C10.601 14.5 9.479 13.378 9.479 12C9.479 10.622 10.601 9.5 11.979 9.5C13.357 9.5 14.479 10.622 14.479 12C14.479 13.378 13.357 14.5 11.979 14.5ZM11.979 10.5C11.152 10.5 10.479 11.173 10.479 12C10.479 12.827 11.152 13.5 11.979 13.5C12.806 13.5 13.479 12.827 13.479 12C13.479 11.173 12.806 10.5 11.979 10.5ZM4 9H0V5H1V7.2C2.853 2.963 7.083 0 12 0C18.623 0 24 5.377 24 12H23C23 5.929 18.071 1 12 1C7.34 1 3.353 3.904 1.751 8H4V9Z" fill="#149BDC"/>
</svg>
