<svg viewBox="0 0 65 69" fill="none" xmlns="http://www.w3.org/2000/svg">
<path d="M60.5037 59.578L60.3262 59.4004L60.0852 59.299C59.1975 58.9312 57.866 58.7156 56.192 58.4366C53.5923 58.0055 50.2063 57.4348 47.2261 56.0905L47.2515 56.0779L40.898 49.6483C40.4922 48.4182 40.264 46.9725 40.2132 45.3239C44.4362 42.534 47.67 37.6262 48.9889 31.4883C51.3096 31.1079 53.047 28.635 53.047 25.528C53.047 23.7272 52.4509 22.1674 51.5125 21.0768V18.5912C51.5125 8.34447 42.7876 0 32.0717 0C21.3431 0 12.6308 8.34447 12.6308 18.6038V21.0894C11.6924 22.18 11.0964 23.7526 11.0964 25.5407C11.0964 28.635 12.8337 31.1206 15.1545 31.501C16.4733 37.6389 19.7071 42.5466 23.9301 45.3366C23.8794 46.9852 23.6511 48.4309 23.2453 49.661L16.8918 56.0905L16.9172 56.1032C13.937 57.4602 10.5511 58.0308 7.95134 58.4493C6.27737 58.7283 4.95849 58.9439 4.0581 59.3117L3.81715 59.4131L3.63961 59.5907C2.85335 60.3515 0.57067 63.7756 0 67.9985L2.51095 68.3409C2.96749 64.9803 4.69218 62.3172 5.26285 61.569C5.94765 61.3534 7.06363 61.1758 8.34447 60.9603C11.4388 60.453 15.5983 59.7428 19.1745 57.8026L27.1385 63.6995L32.059 57.1685L36.9794 63.6995L44.9434 57.8026C48.5323 59.7555 52.6792 60.453 55.7735 60.9603C57.0543 61.1758 58.1703 61.3534 58.8551 61.569C59.4258 62.3172 61.1632 64.9803 61.607 68.3409L64.118 67.9985C63.5727 63.7756 61.2773 60.3515 60.5037 59.578ZM32.0717 2.53631C41.3926 2.53631 48.9762 9.73944 48.9762 18.6038V19.6184C48.7733 19.5803 48.5831 19.5423 48.3675 19.5423C48.1772 19.5423 47.9997 19.5676 47.7334 19.6184L46.7315 19.7832L46.6808 20.7978C46.6301 21.8123 46.6047 22.6493 46.5794 23.4862C46.554 24.1964 46.5413 24.8939 46.5033 25.7055H45.4761C45.4 22.6619 45.0195 20.0242 44.3728 17.8937C45.159 18.2361 45.958 18.5531 46.7442 18.8321L47.5685 16.4353C46.4018 16.0295 45.2351 15.5476 44.0811 14.9769C42.9651 14.4316 41.9252 13.8102 40.9361 13.1635C41.9633 12.3392 42.8129 11.4641 43.3836 10.5637L41.2404 9.19413C39.6045 11.7685 35.1406 14.1907 29.8651 15.3954C23.0424 16.9426 17.3737 15.8393 15.9154 13.8102C18.0839 7.27922 24.5008 2.53631 32.0717 2.53631ZM15.1671 18.6038C15.1671 17.9317 15.2179 17.2723 15.3066 16.6255C16.5241 17.4752 18.1727 18.0839 20.1383 18.4009C19.555 19.8086 18.8321 22.1927 18.6799 25.6928H17.6274C17.5893 24.8812 17.564 24.1837 17.5513 23.4736C17.5259 22.6366 17.5006 21.7996 17.4498 20.7851L17.2976 19.7706L16.3212 19.5803C16.1436 19.5423 15.9534 19.5169 15.7632 19.5169C15.5603 19.5169 15.3574 19.555 15.1545 19.593V18.6038H15.1671ZM17.4371 30.0046L17.2216 28.7491L15.9661 28.9774L15.7759 29.0154C14.6345 29.0154 13.6327 27.3922 13.6327 25.5407C13.6327 24.1584 14.1907 22.9029 14.9896 22.3703C15.0023 22.7761 15.015 23.1692 15.0276 23.5623C15.053 24.6149 15.0911 25.6675 15.1671 27.0498L15.2432 28.2418H21.1909V26.9737C21.1909 22.2054 22.3449 19.5296 22.8141 18.6419C23.0804 18.6546 23.3341 18.6673 23.6131 18.6673C25.7309 18.6673 28.0516 18.4009 30.4484 17.8556C33.5808 17.1455 36.4088 16.0295 38.7041 14.6979C39.4016 15.1798 40.1118 15.649 40.8727 16.0929C42.2169 18.3122 42.9524 22.1547 42.9524 26.9737V28.2418H48.9001L48.9762 27.0498C49.0523 25.6675 49.0903 24.6149 49.1157 23.5623C49.1284 23.1565 49.141 22.7634 49.1537 22.3449C49.9273 22.8775 50.5107 24.1457 50.5107 25.5533C50.5107 27.4049 49.5088 29.0281 48.3928 29.0281L46.9218 28.7491L46.7062 30.0046C45.1464 38.8817 38.9831 45.3239 32.0717 45.3239C25.1602 45.3112 18.997 38.869 17.4371 30.0046ZM32.0717 47.8475C34.05 47.8475 35.9649 47.429 37.753 46.6681C37.8545 47.8348 38.0447 48.9001 38.3237 49.8893L32.0717 53.5796L25.8197 49.8893C26.0987 48.9001 26.2889 47.8348 26.3903 46.6681C28.1784 47.4417 30.0933 47.8475 32.0717 47.8475ZM26.644 60.1486L20.747 55.7862L24.4627 52.0324L30.2075 55.4184L26.644 60.1486ZM37.4994 60.1486L33.9359 55.4184L39.6806 52.0324L43.3963 55.7862L37.4994 60.1486Z" fill="#C57CB8"/>
</svg>
