<svg viewBox="0 0 60 76" fill="none" xmlns="http://www.w3.org/2000/svg">
<path d="M47.6573 59.9166C44.6391 58.5724 41.7097 57.2535 39.5918 55.4654C45.0576 53.9943 49.7244 50.7605 52.6158 46.3473C55.7735 41.5157 56.6232 35.5173 55.076 28.9863C55.8369 25.2833 56.154 19.7668 53.5416 14.0094C52.3622 11.4223 49.9273 6.04533 43.9416 3.76265C40.619 2.4945 36.6624 2.54522 34.4685 2.91299C31.8054 1.41656 27.7092 -0.206673 22.6746 0.0215949C21.2416 0.0850027 13.8863 0.731765 9.68871 7.41495C9.10536 8.35338 8.87709 8.98746 8.64883 9.67226C8.39519 10.4078 8.10352 11.2575 7.21581 12.8934C5.97302 15.1887 5.00922 16.3428 4.17223 17.3573C3.46207 18.2069 2.80262 19.0059 2.15587 20.236C-1.05257 26.3485 1.24279 33.3487 1.73737 34.693C1.9276 35.2129 2.07978 35.9104 2.25732 36.7093C2.82799 39.3344 3.62693 42.936 6.88609 45.9922L7.2919 46.3727C8.10352 47.1209 8.69955 47.6662 8.97855 48.5666C9.57458 50.5576 9.18145 51.42 8.38251 53.1193C8.15424 53.6012 7.91329 54.1211 7.68503 54.7045C6.79732 56.8857 6.59441 59.4601 7.00022 62.0344C3.42402 63.924 0 66.5364 0 71.2159H2.53631C2.53631 68.5908 4.04542 66.6125 7.62162 64.5961C8.12888 66.194 8.83905 67.7411 9.80285 69.1361C12.6816 73.3337 17.1074 75.6291 22.2815 75.6291C22.383 75.6291 22.4844 75.6291 22.5985 75.6291L23.2453 75.6164L23.6131 75.0964C24.8812 73.3083 25.6168 71.3934 26.0099 69.4658H43.3202C45.8438 69.4658 48.1265 67.9694 49.1284 65.636L49.9273 63.7845C53.7191 65.6487 56.5598 67.6777 56.5598 71.2286H59.0961C59.0834 65.0273 53.2752 62.4276 47.6573 59.9166ZM21.8884 73.0674C17.7415 72.9532 14.2033 71.051 11.8826 67.6777C9.38435 64.0381 8.62346 59.0923 10.0311 55.6302C10.2467 55.0849 10.475 54.603 10.6779 54.1592C11.5402 52.3204 12.2758 50.7352 11.4007 47.8184C10.9315 46.2332 9.94234 45.3328 9.00391 44.4705L8.61078 44.1154C5.92229 41.6044 5.26285 38.5735 4.73022 36.1387C4.54 35.2763 4.36246 34.4774 4.10883 33.7926C3.84251 33.0824 1.62324 26.6655 4.38782 21.39C4.90776 20.3882 5.44039 19.7541 6.11251 18.9552C6.98754 17.9026 8.07815 16.5964 9.43508 14.0854C10.4242 12.2593 10.7666 11.2701 11.0456 10.4839C11.2612 9.8498 11.4007 9.44399 11.8446 8.7465C15.3701 3.14126 21.584 2.59596 22.8014 2.53255C27.4556 2.31696 31.26 3.9402 33.6061 5.32249L34.0373 5.57611L34.5192 5.47467C36.1932 5.1069 39.985 4.95472 43.0285 6.12142C48.0378 8.03634 50.1049 12.6017 51.2208 15.0492C53.6176 20.3248 53.2499 25.3974 52.527 28.7326L52.4636 29.0243L52.5397 29.316C54.0108 35.2636 53.3006 40.6787 50.4853 44.965C47.7588 49.1373 42.9905 52.1935 37.6262 53.3095C36.9541 52.2696 36.5102 51.0776 36.3961 49.6826C41.2404 47.0955 44.9942 41.82 46.4526 35.0861C48.7733 34.7057 50.5107 32.2328 50.5107 29.1258C50.5107 26.0315 48.7733 23.5459 46.4526 23.1654C46.2497 22.2651 45.996 21.39 45.7043 20.553V18.5494C40.7078 18.5494 35.6732 14.9605 33.9993 10.2049L33.1496 7.80807L31.7419 9.92589C28.8886 14.2123 22.2942 19.2849 13.1254 19.4751L13.1635 21.1237C12.9606 21.7958 12.7577 22.468 12.6055 23.1654C10.2847 23.5459 8.54737 26.0188 8.54737 29.1258C8.54737 32.2201 10.2847 34.7057 12.6055 35.0861C14.0639 41.82 17.8176 47.0829 22.6493 49.6826C22.5351 51.141 22.0786 52.4345 21.2543 53.6012L20.8104 54.2353L21.1655 54.9201C21.2289 55.0088 26.6059 65.5726 21.8884 73.0674ZM14.9135 33.577L14.6979 32.3342L13.2522 32.5878C12.1109 32.5878 11.109 30.9646 11.109 29.1131C11.109 27.2616 12.1109 25.6383 13.2269 25.6383L14.6979 25.9047L14.9135 24.6619C15.0911 23.6854 15.332 22.7469 15.6237 21.8339C23.3341 20.9969 29.2056 17.0149 32.5409 13.0963C34.6968 17.0656 38.7168 19.9824 43.13 20.832C43.5865 22.0368 43.9543 23.3176 44.1952 24.6619L44.4108 25.9173L45.6663 25.6891L45.8565 25.651C46.9979 25.651 47.9997 27.2743 47.9997 29.1258C47.9997 30.9646 47.0105 32.5752 45.7804 32.5752L44.4108 32.3469L44.1952 33.5897C42.6354 42.4668 36.4722 48.909 29.5607 48.909C22.6239 48.8963 16.4733 42.4541 14.9135 33.577ZM46.7823 64.6088C46.1862 66.0037 44.8166 66.9041 43.3075 66.9041H26.3269C26.644 61.4003 24.5895 56.2389 23.7526 54.4255C24.4374 53.2968 24.8812 52.054 25.0968 50.7225C26.5171 51.1917 28.0136 51.4453 29.548 51.4453C31.0825 51.4453 32.5662 51.1917 33.9993 50.7351C34.9884 57.0379 41.139 59.8025 46.6301 62.25C46.9598 62.4022 47.3022 62.5417 47.6193 62.6939L46.7823 64.6088Z" fill="#BE7AB9"/>
</svg>
