<svg width="15" height="16" viewBox="0 0 15 16" fill="none" xmlns="http://www.w3.org/2000/svg">
<path d="M13.9119 12.8532C13.55 11.996 13.0248 11.2174 12.3657 10.5608C11.7085 9.90221 10.93 9.37715 10.0733 9.01457C10.0656 9.01074 10.0579 9.00882 10.0502 9.00498C11.2454 8.14173 12.0223 6.73558 12.0223 5.1491C12.0223 2.52097 9.89293 0.391602 7.26479 0.391602C4.63666 0.391602 2.50729 2.52097 2.50729 5.1491C2.50729 6.73558 3.28422 8.14173 4.47935 9.0069C4.47168 9.01074 4.46401 9.01266 4.45633 9.01649C3.59691 9.37906 2.82574 9.89893 2.16391 10.5627C1.50536 11.2198 0.980295 11.9983 0.617718 12.8551C0.261524 13.6939 0.0694199 14.5932 0.0518058 15.5043C0.0512938 15.5248 0.054885 15.5452 0.0623679 15.5643C0.0698508 15.5833 0.081074 15.6007 0.0953761 15.6154C0.109678 15.63 0.12677 15.6417 0.145644 15.6496C0.164518 15.6576 0.184793 15.6617 0.205274 15.6616H1.35628C1.44069 15.6616 1.50783 15.5945 1.50975 15.512C1.54812 14.0311 2.1428 12.6441 3.19406 11.5928C4.28176 10.5051 5.72628 9.90661 7.26479 9.90661C8.80331 9.90661 10.2478 10.5051 11.3355 11.5928C12.3868 12.6441 12.9815 14.0311 13.0198 15.512C13.0218 15.5964 13.0889 15.6616 13.1733 15.6616H14.3243C14.3448 15.6617 14.3651 15.6576 14.3839 15.6496C14.4028 15.6417 14.4199 15.63 14.4342 15.6154C14.4485 15.6007 14.4597 15.5833 14.4672 15.5643C14.4747 15.5452 14.4783 15.5248 14.4778 15.5043C14.4586 14.5874 14.2687 13.6953 13.9119 12.8532ZM7.26479 8.44866C6.38427 8.44866 5.55554 8.10528 4.93208 7.48181C4.30862 6.85835 3.96523 6.02962 3.96523 5.1491C3.96523 4.26858 4.30862 3.43986 4.93208 2.81639C5.55554 2.19293 6.38427 1.84955 7.26479 1.84955C8.14531 1.84955 8.97404 2.19293 9.5975 2.81639C10.221 3.43986 10.5644 4.26858 10.5644 5.1491C10.5644 6.02962 10.221 6.85835 9.5975 7.48181C8.97404 8.10528 8.14531 8.44866 7.26479 8.44866Z" fill="white"/>
</svg>
