<svg width="60" height="60" viewBox="0 0 60 60" fill="none" xmlns="http://www.w3.org/2000/svg">
<rect x="60" width="60" height="60" rx="30" transform="rotate(90 60 0)" fill="url(#paint0_linear_1718_19870)"/>
<path d="M46.6295 33.0511C47.0896 34.4253 45.6428 35.4544 43.972 35.0912C43.3303 34.9519 42.4041 34.1226 42.0954 35.1759C41.7866 36.2413 43.0095 36.3685 43.748 36.653C44.0749 36.7801 44.4684 36.7498 44.8376 36.7862C45.2008 36.8225 45.6246 36.7983 45.7517 37.2341C45.8667 37.6458 45.5701 37.9121 45.2735 38.1422C45.1464 38.239 44.8861 38.3419 44.8982 38.4025C45.3098 40.2851 43.518 41.2476 43.1184 42.761C42.9005 43.6025 42.6341 44.2744 41.7927 44.5165C40.8968 44.7708 40.019 44.6437 39.2744 44.0141C38.6206 43.4572 38.9839 42.9366 39.2865 42.3433C39.6861 41.5685 40.8423 40.5757 39.8132 39.9158C38.6751 39.1894 38.6085 40.7997 38.1242 41.4111C37.3252 42.4281 36.4353 43.1182 35.0551 42.876C34.5405 42.7852 33.917 42.6399 33.7839 43.3785C33.6628 44.0625 34.256 44.226 34.7706 44.3652C35.0248 44.4318 35.3396 44.5831 35.5333 44.4984C37.3554 43.663 38.2695 45.2672 39.5287 45.9331C39.7648 46.0541 40.0251 46.1813 40.0008 46.4839C39.9766 46.8714 39.6255 47.059 39.341 47.0409C38.3785 46.9682 37.985 47.852 37.3554 48.1426C35.8057 48.869 34.0502 49.3049 32.3431 49.4926C31.429 49.5894 31.1324 48.4937 31.1263 47.5917C31.1203 45.3883 31.1263 43.1848 31.1263 40.9813H31.1203C31.1203 38.8323 31.1021 36.6772 31.1324 34.5282C31.1384 34.0136 30.9205 33.1601 31.7983 33.2206C32.5368 33.269 32.9666 33.8805 32.8334 34.7037C32.7305 35.3333 32.7003 35.9629 32.9727 36.5561C33.1543 36.9496 33.3964 37.3249 33.911 37.222C34.4376 37.1191 34.5345 36.7014 34.4497 36.2474C34.1955 34.8974 34.71 33.8986 35.8239 33.1601C36.1811 32.924 36.5685 32.6395 36.3142 32.1491C36.0297 31.6043 35.5394 31.7435 35.0733 31.913C32.7487 32.7545 31.1324 31.6527 31.1203 29.2313C31.1142 28.4988 31.1748 27.7603 31.1082 27.0278C30.9871 25.6597 31.2595 24.5883 32.6639 23.9466C33.4388 23.5894 33.8383 22.7722 34.1107 21.955C34.256 21.513 34.2076 21.0954 33.7294 20.8956C33.3177 20.7261 33.0332 20.9864 32.8213 21.3193C32.7124 21.4949 32.6397 21.7007 32.5247 21.8702C32.2947 22.2153 32.0586 22.6995 31.5985 22.6087C30.9629 22.4816 31.1445 21.8642 31.1385 21.4283C31.1203 18.3834 31.0961 15.3445 31.1445 12.2995C31.1748 10.4653 32.4944 9.82969 34.0199 10.8346C34.1531 10.9193 34.2863 11.1494 34.3771 11.1252C36.3808 10.6045 37.5613 12.3419 39.1836 12.8323C40.1643 13.1289 40.5759 13.6555 40.5941 14.612C40.6123 15.7259 40.3459 16.7005 39.3168 17.3058C39.0081 17.4874 38.7114 17.3361 38.4511 17.1303C38.1666 16.9002 37.9124 16.6157 37.6036 16.4341C36.9741 16.0709 36.2355 15.1568 35.5939 16.0951C35.0733 16.8579 36.0721 17.2332 36.5806 17.5903C37.8397 18.4802 38.2877 19.6546 38.0334 21.1438C37.9487 21.6341 37.6702 22.2697 38.4209 22.4453C39.0747 22.5966 39.5226 21.9973 39.4681 21.5373C39.2199 19.364 40.9391 18.2199 41.8532 16.652C42.0046 16.3917 42.0833 15.9983 42.4767 16.0527C42.9187 16.1133 43.0882 16.5189 43.0518 16.876C42.9731 17.7235 43.2637 18.2562 44.0688 18.5831C44.5289 18.7708 44.8497 19.2853 44.7771 19.7272C44.5955 20.8048 45.3522 21.4888 45.6246 22.3363C46.0665 23.7165 46.236 25.2057 46.6719 26.6404C46.9745 27.6332 45.7638 28.1659 44.8316 28.4323C43.9357 28.6865 43.3121 28.3051 42.9792 27.4334C42.8702 27.1428 42.7371 26.8523 42.5736 26.5799C42.2951 26.1198 41.9622 25.6234 41.3387 25.914C40.7515 26.1864 40.9634 26.7191 41.1692 27.1428C41.6656 28.172 41.5869 29.1587 41.1026 30.1696C40.9028 30.5934 40.7454 31.1321 41.3266 31.3924C41.7866 31.5983 42.1438 31.2532 42.3678 30.89C43.3606 29.2616 45.2251 30.5026 46.5024 29.6369C46.8293 29.419 46.9503 30.3028 46.7506 30.5934C46.1634 31.4288 46.3268 32.137 46.6295 33.0511ZM28.8442 30.6781C28.8926 31.6225 26.3319 32.591 25.3876 32.1189C24.8609 31.8586 24.2616 31.453 23.8379 32.0462C23.3415 32.7424 24.1103 33.0087 24.534 33.3538C25.4178 34.0681 25.8295 34.9761 25.6358 36.1263C25.551 36.6288 25.5692 37.1373 26.1987 37.216C26.7981 37.2947 26.9615 36.7801 27.1249 36.3261C27.3066 35.8176 27.2702 35.303 27.1915 34.7703C27.0584 33.8865 27.5063 33.2327 28.3296 33.2146C29.171 33.1964 28.935 34.056 28.9471 34.5706C28.9773 36.7196 28.9592 38.8746 28.9592 41.0236H28.9531C28.9531 43.1726 28.9471 45.3277 28.9531 47.4767C28.9531 48.3242 28.711 49.0506 27.9059 49.4441C27.0705 49.8497 26.3864 49.5349 25.8053 48.8872C25.7024 48.7722 25.5268 48.5543 25.4784 48.5785C23.3899 49.5955 22.4153 47.1498 20.69 47.0348C20.3389 47.0106 19.9031 46.8532 19.8667 46.4234C19.8244 45.9331 20.3631 45.9875 20.6295 45.7817C21.8765 44.8253 23.1175 44.0141 24.8488 44.4197C25.3573 44.5408 26.2896 44.3349 26.2532 43.5116C26.2109 42.5733 25.3936 42.8336 24.7822 42.9063C23.6139 43.0455 22.7422 42.5491 22.1005 41.6169C21.8039 41.1871 21.5678 40.7149 21.3014 40.2669C21.0714 39.8795 20.7687 39.5466 20.2905 39.7524C19.6972 40.0006 19.8365 40.5151 20.0241 40.9631C20.1815 41.3505 20.3934 41.7137 20.5932 42.083C20.8898 42.6157 21.4588 43.1061 20.9079 43.7719C20.2784 44.5347 19.4248 44.7103 18.4865 44.5771C17.7419 44.4742 17.0942 44.0686 17.0821 43.3179C17.0639 42.3009 16.7007 41.6956 15.8048 41.2295C15.2781 40.9571 15.0784 40.3093 15.1934 39.704C15.3266 39.026 15.1934 38.5417 14.6728 38.0271C13.8919 37.2644 14.2733 36.8285 15.2418 36.7862C15.9319 36.7559 16.6039 36.653 17.2092 36.314C17.6632 36.0537 18.2444 35.7934 18.0022 35.1456C17.748 34.4737 17.1669 34.6614 16.6644 34.8732C16.0712 35.1214 15.4597 35.2546 14.8241 35.1093C13.6376 34.843 13.0081 33.8562 13.5045 32.7666C13.8374 32.0462 13.8192 31.5256 13.3773 30.9021C13.1412 30.5692 13.0323 30.0728 13.3652 29.7277C13.6921 29.3887 14.0372 29.8004 14.3822 29.8548C14.8968 29.9396 15.4295 30.1515 15.9198 30.0728C16.7673 29.9396 17.3242 30.1515 17.7359 30.9082C17.9357 31.2774 18.317 31.6164 18.7771 31.3803C19.3401 31.0898 19.1524 30.5631 18.9405 30.1454C18.4078 29.08 18.426 28.0388 18.9466 26.9733C19.1343 26.5859 19.2553 26.1319 18.7347 25.8898C18.2686 25.6718 17.9235 25.9624 17.6693 26.3256C17.4877 26.5799 17.3545 26.8704 17.2153 27.1489C16.507 28.5715 15.6414 28.8681 14.3459 28.1175C13.2442 27.4758 13.0504 26.5314 13.8132 25.3268C14.0372 24.9757 14.4367 24.673 14.2248 24.2129C13.7224 23.1051 14.1522 22.294 14.9634 21.5675C15.375 21.1983 15.2963 20.7261 15.2237 20.2479C15.1389 19.6909 15.2479 19.1219 15.7079 18.8253C16.5373 18.2926 17.2274 17.772 17.076 16.6339C17.0518 16.4583 17.3242 16.1254 17.524 16.0588C17.9175 15.9256 18.0143 16.3191 18.1657 16.5915C18.3715 16.9547 18.5107 17.4027 18.8195 17.6509C19.8365 18.4863 20.5326 19.4125 20.3631 20.829C20.3268 21.1559 20.5629 21.5252 20.7203 21.8581C20.914 22.2637 21.2227 22.5906 21.707 22.4513C22.2337 22.294 22.2337 21.8339 22.0763 21.4162C21.3499 19.4851 22.4334 18.347 23.8137 17.3119C24.2495 16.985 24.988 16.6763 24.4553 15.9862C23.9892 15.3929 23.4081 15.8409 22.9117 16.1314C22.6877 16.2646 22.4819 16.4281 22.2639 16.5794C21.7373 16.9426 21.3377 17.7296 20.5205 17.2332C19.4551 16.5855 19.4733 15.5019 19.5096 14.4364C19.5398 13.6011 19.9152 12.9836 20.7808 12.8988C21.5799 12.8262 22.0218 12.3177 22.609 11.8758C24.08 10.768 26.0232 11.0222 27.7182 10.4895C28.3901 10.2777 28.9168 11.2462 28.9289 12.0513C28.9592 15.3021 28.9531 18.5589 28.9531 21.8097C28.9531 22.1184 28.9531 22.4998 28.5839 22.6027C28.1601 22.7238 27.9482 22.3424 27.694 22.0881C27.2521 21.6341 27.1552 20.3084 26.2048 21.053C25.3755 21.7068 26.1745 22.5664 26.6286 23.2504C26.7133 23.3775 26.8223 23.5228 26.9554 23.5894C30.2546 25.2239 28.711 28.2143 28.8442 30.6781Z" fill="white"/>
<defs>
<linearGradient id="paint0_linear_1718_19870" x1="63.3333" y1="1.06371e-07" x2="78.2864" y2="81.031" gradientUnits="userSpaceOnUse">
<stop stop-color="#58BEC3"/>
<stop offset="0.999767" stop-color="#1367A0"/>
</linearGradient>
</defs>
</svg>
